<?xml version="1.0" encoding="UTF-8"?>
<svg version="1.1" xmlns="http://www.w3.org/2000/svg" width="177" height="236">
<path d="M0 0 C58.41 0 116.82 0 177 0 C177 77.88 177 155.76 177 236 C118.59 236 60.18 236 0 236 C0 158.12 0 80.24 0 0 Z " fill="#111111" transform="translate(0,0)"/>
<path d="M0 0 C2.65491264 -0.31606103 4.61205246 -0.80602623 7 -2 C15.43571907 -2.7810851 22.97792619 -0.1600026 30.375 3.8125 C36.75909577 9.1325798 41.96353555 15.50099148 43 24 C43.03824623 26.33301986 43.04574284 28.66711508 43 31 C43.845625 31.20625 44.69125 31.4125 45.5625 31.625 C53.63845448 34.85538179 58.21952069 40.81944566 61.66796875 48.74609375 C65.23033278 58.59637305 64.5981622 71.18991139 60.875 80.875 C57.03865713 88.43992331 52.65451413 93.31994513 45 97 C44.34 97 43.68 97 43 97 C43.04640625 97.75023437 43.0928125 98.50046875 43.140625 99.2734375 C43.479231 108.87533628 41.8362401 115.91049416 35.625 123.375 C29.41787183 129.89707759 22.44037489 133.35596251 13.4609375 134.25390625 C9.30600824 134.35541104 7.57000815 134.38000543 4 132 C-0.15869464 132.29704962 -2.50407222 132.66938148 -6 135 C-15.72886585 134.74826375 -24.79934595 131.31006593 -31.875 124.625 C-37.91200797 118.08965411 -40.1509456 112.09455977 -40.0625 103.25 C-40.05347656 102.07953125 -40.04445313 100.9090625 -40.03515625 99.703125 C-40.02355469 98.81109375 -40.01195313 97.9190625 -40 97 C-40.90621094 96.731875 -41.81242187 96.46375 -42.74609375 96.1875 C-49.40317265 93.75802583 -53.68097053 89.1842302 -56.875 82.9375 C-61.71015664 72.50641032 -63.08182226 61.04324133 -59.375 50 C-55.63083415 41.29840201 -50.42651375 35.44919926 -42 31 C-41.34 31 -40.68 31 -40 31 C-40.04640625 30.38253906 -40.0928125 29.76507813 -40.140625 29.12890625 C-40.49937776 20.71102904 -38.35254649 13.78909192 -32.61328125 7.41015625 C-23.8731349 -0.22953584 -11.02719132 -5.81990653 0 0 Z " fill="#141414" transform="translate(88,56)"/>
<path d="M0 0 C2.65491264 -0.31606103 4.61205246 -0.80602623 7 -2 C15.43571907 -2.7810851 22.97792619 -0.1600026 30.375 3.8125 C36.75909577 9.1325798 41.96353555 15.50099148 43 24 C43.03824623 26.33301986 43.04574284 28.66711508 43 31 C43.845625 31.20625 44.69125 31.4125 45.5625 31.625 C53.63845448 34.85538179 58.21952069 40.81944566 61.66796875 48.74609375 C65.23033278 58.59637305 64.5981622 71.18991139 60.875 80.875 C57.03865713 88.43992331 52.65451413 93.31994513 45 97 C44.34 97 43.68 97 43 97 C43.04640625 97.75023437 43.0928125 98.50046875 43.140625 99.2734375 C43.479231 108.87533628 41.8362401 115.91049416 35.625 123.375 C29.41787183 129.89707759 22.44037489 133.35596251 13.4609375 134.25390625 C9.30600824 134.35541104 7.57000815 134.38000543 4 132 C-0.15869464 132.29704962 -2.50407222 132.66938148 -6 135 C-15.72886585 134.74826375 -24.79934595 131.31006593 -31.875 124.625 C-37.91200797 118.08965411 -40.1509456 112.09455977 -40.0625 103.25 C-40.05347656 102.07953125 -40.04445313 100.9090625 -40.03515625 99.703125 C-40.02355469 98.81109375 -40.01195313 97.9190625 -40 97 C-40.90621094 96.731875 -41.81242187 96.46375 -42.74609375 96.1875 C-49.40317265 93.75802583 -53.68097053 89.1842302 -56.875 82.9375 C-61.71015664 72.50641032 -63.08182226 61.04324133 -59.375 50 C-55.63083415 41.29840201 -50.42651375 35.44919926 -42 31 C-41.34 31 -40.68 31 -40 31 C-40.04640625 30.38253906 -40.0928125 29.76507813 -40.140625 29.12890625 C-40.49937776 20.71102904 -38.35254649 13.78909192 -32.61328125 7.41015625 C-23.8731349 -0.22953584 -11.02719132 -5.81990653 0 0 Z M-13 1 C-14.43832787 14.63051186 -14.43832787 14.63051186 -9.5 26.75 C-7.65715594 28.67261274 -7.65715594 28.67261274 -6 30 C-6.99 30 -7.98 30 -9 30 C-9.28875 29.401875 -9.5775 28.80375 -9.875 28.1875 C-11.04742026 25.80672208 -11.04742026 25.80672208 -13 23 C-13.66 23 -14.32 23 -15 23 C-18.63633539 26.47998507 -18.63633539 26.47998507 -20 31 C-20.66 31 -21.32 31 -22 31 C-18.32050823 24.2754116 -18.32050823 24.2754116 -16.4453125 22.6640625 C-14.57274727 20.50808199 -14.65021324 19.37274219 -14.70703125 16.55078125 C-14.71669922 15.70322266 -14.72636719 14.85566406 -14.73632812 13.98242188 C-14.76146484 13.10134766 -14.78660156 12.22027344 -14.8125 11.3125 C-14.82603516 10.41982422 -14.83957031 9.52714844 -14.85351562 8.60742188 C-14.88885921 6.40433834 -14.93819507 4.20247418 -15 2 C-22.94398899 3.06070308 -28.73881679 6.7179616 -33.74609375 12.98046875 C-37.08986839 18.3659251 -39.26682438 25.78104397 -38 32 C-35.58597169 34.97151633 -32.89997472 37.50783422 -30 40 C-30.66 40 -31.32 40 -32 40 C-32.95134455 39.01140401 -33.86302058 37.98423109 -34.75 36.9375 C-37.28853946 34.34251303 -37.28853946 34.34251303 -40.875 33.6875 C-48.04603406 36.6993343 -52.77433546 42.05241484 -56 49 C-57.82697321 54.33084682 -58.25703546 58.88693256 -58.125 64.4375 C-58.11146484 65.53481445 -58.11146484 65.53481445 -58.09765625 66.65429688 C-58.07436153 68.43634298 -58.0385019 70.21821759 -58 72 C-57.34 72.33 -56.68 72.66 -56 73 C-48.54086336 66.72870757 -41.78625291 59.82141273 -34.98242188 52.85546875 C-34.12583984 51.98792969 -33.26925781 51.12039062 -32.38671875 50.2265625 C-31.61545654 49.43846191 -30.84419434 48.65036133 -30.04956055 47.83837891 C-28 46 -28 46 -25 45 C-28.42166518 49.70478962 -32.57905197 53.27653164 -37 57 C-35.17479391 61.15300516 -32.47288387 63.1182453 -29 66 C-28.67 66.99 -28.34 67.98 -28 69 C-28.53109375 68.51789063 -29.0621875 68.03578125 -29.609375 67.5390625 C-30.66898438 66.59160156 -30.66898438 66.59160156 -31.75 65.625 C-32.44609375 64.99851562 -33.1421875 64.37203125 -33.859375 63.7265625 C-35.85477274 62.11713586 -37.70179679 61.09859164 -40 60 C-42.71590379 62.51269112 -45.39190161 65.0642751 -48.0625 67.625 C-48.83400391 68.33785156 -49.60550781 69.05070312 -50.40039062 69.78515625 C-54.79662794 73.77761242 -54.79662794 73.77761242 -56.15625 79.26953125 C-53.30144994 86.01110301 -49.03728511 90.43372328 -42.9296875 94.3828125 C-40.97109386 95.22201252 -40.97109386 95.22201252 -38.9296875 94.28125 C-36.26677699 92.51316367 -34.19165154 90.31340996 -32 88 C-33.44424635 84.76138697 -35.25772247 82.38030837 -37.625 79.75 C-38.57246094 78.69039062 -38.57246094 78.69039062 -39.5390625 77.609375 C-40.02117188 77.07828125 -40.50328125 76.5471875 -41 76 C-39.70756532 77.1241176 -38.41607925 78.24932592 -37.125 79.375 C-36.40570313 80.00148438 -35.68640625 80.62796875 -34.9453125 81.2734375 C-33.5923402 82.47426834 -32.2791655 83.7208345 -31 85 C-27.38008264 84.70831244 -25.67636187 83.00384429 -23.25 80.4375 C-22.63640625 79.79683594 -22.0228125 79.15617187 -21.390625 78.49609375 C-20.93171875 78.00238281 -20.4728125 77.50867188 -20 77 C-20 79 -20 79 -21.65234375 80.72070312 C-22.40644531 81.40068359 -23.16054687 82.08066406 -23.9375 82.78125 C-24.74960937 83.54179687 -25.56171875 84.30234375 -26.3984375 85.0859375 C-28.11731313 86.6809302 -29.85157765 88.25951521 -31.6015625 89.8203125 C-36.18815573 94.04873089 -36.18815573 94.04873089 -38.61962891 99.62426758 C-38.77116932 108.53934012 -35.71894019 117.11307893 -29.59375 123.62890625 C-27.28241047 125.61733806 -24.81195139 126.8618292 -22 128 C-20.66079162 126.88200014 -19.32877444 125.75538103 -18 124.625 C-17.2575 123.99851562 -16.515 123.37203125 -15.75 122.7265625 C-15.1725 122.15679687 -14.595 121.58703125 -14 121 C-14 120.34 -14 119.68 -14 119 C-13.34 119 -12.68 119 -12 119 C-13.97456813 122.55422264 -16.13904448 125.13904448 -19 128 C-19 128.66 -19 129.32 -19 130 C-13.31039263 132.27584295 -8.18751657 133.1362495 -2.28442383 131.03198242 C0.42031999 129.0654881 0.42031999 129.0654881 0.56762695 125.0793457 C0.56683605 123.44461044 0.53862389 121.80974136 0.48828125 120.17578125 C0.47766914 118.88367989 0.47766914 118.88367989 0.46684265 117.56547546 C0.43884839 114.81360087 0.37610323 112.06375967 0.3125 109.3125 C0.28742352 107.44729501 0.26460921 105.58205813 0.24414062 103.71679688 C0.18900551 99.14374752 0.10270033 94.5722185 0 90 C-1.12633231 90.95441763 -2.25111702 91.91066183 -3.37524414 92.86767578 C-4.00177383 93.3999881 -4.62830353 93.93230042 -5.27381897 94.48074341 C-7.1748813 96.15391755 -8.83216888 97.91727912 -10.4375 99.875 C-11.283125 100.90625 -12.12875 101.9375 -13 103 C-10.69 105.31 -8.38 107.62 -6 110 C-8 110 -8 110 -10.625 107.5 C-11.40875 106.675 -12.1925 105.85 -13 105 C-16.94139078 106.66751148 -19.7892812 109.22710649 -23 112 C-20.91557391 108.13566188 -18.69659886 105.64062786 -15.33203125 102.83984375 C-4.20173794 93.82491468 -4.20173794 93.82491468 1.31640625 81.23828125 C1.46143181 76.38353988 0.91200379 71.76268646 0 67 C-0.47123291 67.40557129 -0.94246582 67.81114258 -1.42797852 68.22900391 C-2.05115967 68.76444824 -2.67434082 69.29989258 -3.31640625 69.8515625 C-3.93201416 70.38088379 -4.54762207 70.91020508 -5.18188477 71.45556641 C-7.4159457 73.35333322 -9.69760111 75.18598875 -12 77 C-10.91851833 75.74839762 -9.83472078 74.49879619 -8.75 73.25 C-8.11578125 72.5178125 -7.4815625 71.785625 -6.828125 71.03125 C-5 69 -5 69 -2.5 66.75 C-0.80931256 65.14653498 -0.80931256 65.14653498 -0.9375 63.125 C-2.50836753 59.98326494 -4.67087033 57.62773604 -7 55 C-6.50371094 55.5053125 -6.00742188 56.010625 -5.49609375 56.53125 C-1.01280964 60.86556526 -1.01280964 60.86556526 4.875 62.5625 C8.08974503 62.29069271 8.08974503 62.29069271 10 60 C12.625 60.375 12.625 60.375 15 61 C15.495 63.475 15.495 63.475 16 66 C13.125 66.625 13.125 66.625 10 67 C9.34 66.34 8.68 65.68 8 65 C6.35 65 4.7 65 3 65 C3 74.9 3 84.8 3 95 C8.94 95 14.88 95 21 95 C21 94.34 21 93.68 21 93 C23.375 92.875 23.375 92.875 26 93 C28 95 28 95 28 99 C26.02 99.33 24.04 99.66 22 100 C21.67 99.34 21.34 98.68 21 98 C15.06 98 9.12 98 3 98 C3 108.23 3 118.46 3 129 C8.95088398 132.01417377 8.95088398 132.01417377 15 132 C15.05391993 130.20866022 15.09275571 128.41686101 15.125 126.625 C15.14820312 125.62726563 15.17140625 124.62953125 15.1953125 123.6015625 C15.27216848 120.83737827 15.27216848 120.83737827 13 119 C12.875 116.375 12.875 116.375 13 114 C14.65614657 113.61781233 16.32457024 113.28604898 18 113 C19 114 19 114 19.0625 116.5625 C19.041875 117.366875 19.02125 118.17125 19 119 C18.01 119.495 18.01 119.495 17 120 C17 123.63 17 127.26 17 131 C26.41668734 128.14645838 32.92451309 124.69869586 38 116 C39.41254407 112.71464469 40.29853811 109.50182926 41 106 C41.2784375 104.90365234 41.2784375 104.90365234 41.5625 103.78515625 C41.95158059 101.09563666 41.88073883 99.59651777 41 97 C37.67845425 92.60926387 33.96123673 88.81254166 30 85 C29.34 84.34 28.68 83.68 28 83 C26.01643517 82.28591666 24.01684563 81.61382258 22 81 C21.61781233 79.34385343 21.28604898 77.67542976 21 76 C22 75 22 75 24.5625 74.9375 C25.366875 74.958125 26.17125 74.97875 27 75 C27.04125 75.680625 27.0825 76.36125 27.125 77.0625 C28.38828334 81.30352264 31.03986199 83.79100083 34 87 C35.29497483 88.47627131 36.58668458 89.95541357 37.875 91.4375 C38.91630907 92.62531359 39.9578443 93.81292916 41 95 C47.23304526 93.63568537 51.6706171 89.90715027 55.67578125 85.08203125 C58.03602032 81.3710949 59.02450308 77.25282429 60 73 C58.04196493 72.94610913 56.08351091 72.90725783 54.125 72.875 C53.03445312 72.85179687 51.94390625 72.82859375 50.8203125 72.8046875 C47.8628949 72.69939466 47.8628949 72.69939466 46 75 C43.375 75.125 43.375 75.125 41 75 C41 74.34 41 73.68 41 73 C42.98 73.495 42.98 73.495 45 74 C45 72.68 45 71.36 45 70 C45.66 70 46.32 70 47 70 C47.33 70.33 47.66 70.66 48 71 C50.18639453 71.07258946 52.37500389 71.08373783 54.5625 71.0625 C55.76003906 71.05347656 56.95757812 71.04445313 58.19140625 71.03515625 C59.58166016 71.01775391 59.58166016 71.01775391 61 71 C61.02697137 68.39576408 61.04682489 65.79180756 61.0625 63.1875 C61.07506836 62.08051758 61.07506836 62.08051758 61.08789062 60.95117188 C61.10259828 57.70077932 61.03531702 55.10595105 60 52 C53.73 52 47.46 52 41 52 C40.505 52.99 40.505 52.99 40 54 C38.02 54 36.04 54 34 54 C33.505 51.03 33.505 51.03 33 48 C35.875 47.875 35.875 47.875 39 48 C39.66 48.66 40.32 49.32 41 50 C42.93681136 50.27654388 42.93681136 50.27654388 45.1328125 50.1953125 C45.93847656 50.18886719 46.74414062 50.18242188 47.57421875 50.17578125 C48.41597656 50.15902344 49.25773437 50.14226562 50.125 50.125 C51.39923828 50.11146484 51.39923828 50.11146484 52.69921875 50.09765625 C54.79959884 50.07405647 56.89983444 50.03818483 59 50 C56.88068847 45.34286928 55.04019198 41.42343798 51 38.125 C50.01 37.29355469 50.01 37.29355469 49 36.4453125 C45.28119715 33.75789637 42.63500456 32.7483536 38.015625 32.8046875 C36.61376953 32.81435547 36.61376953 32.81435547 35.18359375 32.82421875 C33.73146484 32.84935547 33.73146484 32.84935547 32.25 32.875 C31.26644531 32.88402344 30.28289062 32.89304688 29.26953125 32.90234375 C26.84610593 32.92587215 24.42317778 32.95874632 22 33 C21.505 33.99 21.505 33.99 21 35 C19.35 35 17.7 35 16 35 C15.375 32.625 15.375 32.625 15 30 C17 28 17 28 19.625 27.875 C20.40875 27.91625 21.1925 27.9575 22 28 C22 28.66 22 29.32 22 30 C27.94 30 33.88 30 40 30 C40 21.57845597 39.43704189 17.55111819 34.8125 10.8125 C30.54585308 6.54585308 25.97892489 3.23839647 20 2 C19.94604522 3.62463842 19.90722805 5.24978541 19.875 6.875 C19.85179688 7.77992187 19.82859375 8.68484375 19.8046875 9.6171875 C19.75675164 12.18806994 19.75675164 12.18806994 22 14 C21.625 16.625 21.625 16.625 21 19 C19.35 19 17.7 19 16 19 C15.375 16.625 15.375 16.625 15 14 C15.66 13.34 16.32 12.68 17 12 C17.24315656 9.33050591 17.24315656 9.33050591 17.125 6.375 C17.10695313 5.37210938 17.08890625 4.36921875 17.0703125 3.3359375 C17.04710938 2.56507812 17.02390625 1.79421875 17 1 C15.60805394 0.74829734 14.2110173 0.5246731 12.8125 0.3125 C12.03519531 0.18488281 11.25789063 0.05726562 10.45703125 -0.07421875 C7.1094362 0.02690097 5.61839977 0.92212851 3 3 C1.7447606 7.83326564 1.88310046 12.89513282 1.875 17.875 C1.86853455 18.58119476 1.86206909 19.28738953 1.85540771 20.01498413 C1.8538645 27.72368009 1.95819527 34.69992972 7.36767578 40.72509766 C11.81045078 44.73828508 16.15001148 47.39080863 22 49 C21.67 50.65 21.34 52.3 21 54 C19.35 54 17.7 54 16 54 C15.82726562 53.46632812 15.65453125 52.93265625 15.4765625 52.3828125 C12.67235137 44.947794 7.79218516 40.29476468 2 35 C-2.67908305 38.89923587 -7.00181998 42.95191098 -11.203125 47.36328125 C-13 49 -13 49 -16 50 C-15.02558278 48.85012502 -14.04503375 47.70544743 -13.0625 46.5625 C-12.4535791 45.84723145 -11.8446582 45.13196289 -11.21728516 44.39501953 C-9 42 -9 42 -6.6652832 40.1262207 C-2.78509928 36.92551968 -0.3478687 34.50329349 0.80737305 29.51098633 C1.01972013 26.20797251 1.08691571 22.97547476 0.95361328 19.66845703 C0.87425307 17.60558459 0.87157074 15.55249448 0.87890625 13.48828125 C0.83198244 8.19489951 0.83198244 8.19489951 0 3 C-3.96773628 -0.19478994 -8.25705031 -1.37147485 -13 1 Z " fill="#EDEDED" transform="translate(88,56)"/>
<path d="M0 0 C2.65491264 -0.31606103 4.61205246 -0.80602623 7 -2 C15.43571907 -2.7810851 22.97792619 -0.1600026 30.375 3.8125 C37.69327021 9.91105851 42.03432577 16.34325773 43 26 C42.67 26 42.34 26 42 26 C41.505 28.475 41.505 28.475 41 31 C34.4 31 27.8 31 21 31 C21 31.66 21 32.32 21 33 C19.5 34.625 19.5 34.625 18 36 C16.68 35.34 15.36 34.68 14 34 C14.75 29.25 14.75 29.25 17 27 C19.625 27.375 19.625 27.375 22 28 C22 28.66 22 29.32 22 30 C27.94 30 33.88 30 40 30 C39.03931276 21.64202105 37.86011827 15.27045478 32 9 C28.5470629 6.27811953 25.16675195 4.38891732 21 3 C20.94600264 4.45792884 20.90720823 5.91642712 20.875 7.375 C20.85179688 8.18710938 20.82859375 8.99921875 20.8046875 9.8359375 C20.78629949 12.21342243 20.78629949 12.21342243 23 14 C22.44444444 18.55555556 22.44444444 18.55555556 21 20 C18.5625 20.1875 18.5625 20.1875 16 20 C15.01 19.01 15.01 19.01 14 18 C14.55555556 13.44444444 14.55555556 13.44444444 16 12 C16.23363881 10.15108054 16.41303635 8.29511969 16.5625 6.4375 C16.68818359 4.91962891 16.68818359 4.91962891 16.81640625 3.37109375 C16.87699219 2.58863281 16.93757813 1.80617187 17 1 C15.58376784 0.94552953 14.16691809 0.90699492 12.75 0.875 C11.56664063 0.84019531 11.56664063 0.84019531 10.359375 0.8046875 C7.77783437 1.01839119 6.26197418 1.793892 4 3 C1.76532389 21.50193971 1.76532389 21.50193971 6.4609375 38.66015625 C10.80660182 43.50246793 15.72658791 46.21970738 22 48 C22.625 50.375 22.625 50.375 23 53 C21 55 21 55 18.5 55.25 C16 55 16 55 14 53 C13.835 52.01 13.67 51.02 13.5 50 C12.00100983 43.991336 6.38958477 40.02513585 2 36 C-2.70403829 39.92003191 -7.01670637 43.98984241 -11.203125 48.4609375 C-13 50 -13 50 -16 50 C-14.8964902 46.8071783 -13.77088303 45.83567189 -10.9609375 43.8203125 C-5.51061217 39.88123778 -1.57168963 36.33677252 -0.39306641 29.45751953 C0.15798194 20.62234161 -0.2859356 11.81806151 -1 3 C-3.8995661 1.34123921 -5.91635209 0.7638784 -9.25 0.875 C-11.10625 0.936875 -11.10625 0.936875 -13 1 C-13.00631985 4.18926824 -12.94629902 7.37409708 -12.875 10.5625 C-12.87757812 11.45775391 -12.88015625 12.35300781 -12.8828125 13.27539062 C-12.70659895 19.28867798 -11.63621371 22.41818844 -7.28173828 26.64038086 C-6 28 -6 28 -6 30 C-6.99 30 -7.98 30 -9 30 C-13 25.65714286 -13 25.65714286 -13 23 C-13.66 23 -14.32 23 -15 23 C-15.268125 23.5775 -15.53625 24.155 -15.8125 24.75 C-17.02929189 27.05550043 -18.30333879 29.02056192 -20 31 C-20.66 31 -21.32 31 -22 31 C-21.62867155 27.78182011 -20.84540834 26.84347594 -18.5 24.46875 C-15.04275909 20.41722804 -15.22228951 16.25838508 -15.1875 11.125 C-15.16236328 10.24585937 -15.13722656 9.36671875 -15.11132812 8.4609375 C-15.05281805 6.3077668 -15.02345764 4.15383779 -15 2 C-23.36290998 4.86055271 -30.11718453 7.9878571 -34.375 16.0625 C-35.68905288 19.02754239 -36.66695382 21.75279979 -37 25 C-37.185625 26.093125 -37.37125 27.18625 -37.5625 28.3125 C-36.71600974 33.86171391 -33.13264166 36.44851107 -29 40 C-29.66 40.66 -30.32 41.32 -31 42 C-31.43570313 41.48308594 -31.87140625 40.96617188 -32.3203125 40.43359375 C-35.91886323 36.27372302 -35.91886323 36.27372302 -40.9375 34.625 C-47.46799269 37.55705794 -51.74777763 41.56970771 -54.4375 48.25 C-54.98289486 49.82504167 -55.50727626 51.40769503 -56 53 C-56.33 53.99 -56.66 54.98 -57 56 C-57.14492123 57.40664926 -57.24628931 58.8181133 -57.31640625 60.23046875 C-57.35830078 61.03291016 -57.40019531 61.83535156 -57.44335938 62.66210938 C-57.48267578 63.49548828 -57.52199219 64.32886719 -57.5625 65.1875 C-57.60568359 66.03248047 -57.64886719 66.87746094 -57.69335938 67.74804688 C-57.79931518 69.83184433 -57.9001502 71.91590103 -58 74 C-58.99 74.495 -58.99 74.495 -60 75 C-62.84561046 66.46316861 -61.76197547 55.5474308 -58.25390625 47.39453125 C-54.34059557 39.92144887 -49.51655757 34.9687424 -42 31 C-41.34 31 -40.68 31 -40 31 C-40.04640625 30.38253906 -40.0928125 29.76507813 -40.140625 29.12890625 C-40.49937776 20.71102904 -38.35254649 13.78909192 -32.61328125 7.41015625 C-23.8731349 -0.22953584 -11.02719132 -5.81990653 0 0 Z " fill="#DEDEDE" transform="translate(88,56)"/>
<path d="M0 0 C0.66 0.33 1.32 0.66 2 1 C2 2.65 2 4.3 2 6 C2.845625 6.20625 3.69125 6.4125 4.5625 6.625 C12.63273699 9.8530948 17.18236896 15.81062651 20.6875 23.69921875 C23.57572068 31.63609504 22.53978957 40.71215399 22 49 C21.01 49.33 20.02 49.66 19 50 C19 49.34 19 48.68 19 48 C17.04098546 48.11382653 15.0827662 48.24141125 13.125 48.375 C11.48917969 48.47941406 11.48917969 48.47941406 9.8203125 48.5859375 C6.86953526 48.73253491 6.86953526 48.73253491 5 51 C2.375 51.125 2.375 51.125 0 51 C-0.495 48.525 -0.495 48.525 -1 46 C-0.67 46.66 -0.34 47.32 0 48 C1.32 48 2.64 48 4 48 C3.34 46.35 2.68 44.7 2 43 C5.875 43.875 5.875 43.875 7 45 C11.32490853 45.4652292 15.65935537 45.70500473 20 46 C19.67 39.73 19.34 33.46 19 27 C12.73 27 6.46 27 0 27 C-0.33 27.99 -0.66 28.98 -1 30 C-2.99954746 30.04254356 -5.00041636 30.04080783 -7 30 C-8 29 -8 29 -8.0625 25.9375 C-8.0315625 24.4834375 -8.0315625 24.4834375 -8 23 C-5.125 22.375 -5.125 22.375 -2 22 C-1.34 22.66 -0.68 23.32 0 24 C2.9093558 24.14517744 5.719946 24.18630796 8.625 24.125 C9.42679688 24.11597656 10.22859375 24.10695313 11.0546875 24.09765625 C13.03658523 24.07406223 15.01832981 24.03819065 17 24 C12.93866868 17.46837437 9.28248306 12.1250565 2 9 C-0.41179904 8.63820497 -0.41179904 8.63820497 -2.984375 8.5859375 C-4.38623047 8.52792969 -4.38623047 8.52792969 -5.81640625 8.46875 C-6.78449219 8.4378125 -7.75257812 8.406875 -8.75 8.375 C-10.22533203 8.31699219 -10.22533203 8.31699219 -11.73046875 8.2578125 C-14.15346037 8.16371574 -16.57644796 8.07807672 -19 8 C-19.33 8.99 -19.66 9.98 -20 11 C-20.99 11 -21.98 11 -23 11 C-22.67 10.01 -22.34 9.02 -22 8 C-21.34 8 -20.68 8 -20 8 C-20 7.34 -20 6.68 -20 6 C-13.4 6 -6.8 6 0 6 C0 4.02 0 2.04 0 0 Z " fill="#F4F4F4" transform="translate(129,81)"/>
<path d="M0 0 C-1.50349377 3.66786393 -3.63728792 5.68910393 -6.625 8.25 C-7.85089844 9.30960938 -7.85089844 9.30960938 -9.1015625 10.390625 C-10.04128906 11.18726562 -10.04128906 11.18726562 -11 12 C-9.70054085 14.97109349 -8.48542224 16.65197358 -5.875 18.5625 C-4.451875 19.7690625 -4.451875 19.7690625 -3 21 C-3 21.99 -3 22.98 -3 24 C-7.29238623 22.34908222 -9.8793915 19.26245434 -13 16 C-17.39790849 18.01628109 -20.37995348 20.90354788 -23.8125 24.25 C-24.42287109 24.81074219 -25.03324219 25.37148437 -25.66210938 25.94921875 C-27.31805651 27.56596083 -28.74183306 29.05685319 -30 31 C-30.02670872 36.46861125 -27.65463828 40.130383 -24 44 C-21.51207623 46.05352438 -19.0789709 47.97775717 -16 49 C-12.55154114 47.77800437 -10.47309158 45.64974098 -8 43 C-9.43986995 39.25633814 -11.87350302 37.0306886 -14.7578125 34.3671875 C-16 33 -16 33 -16 31 C-12.23232234 32.44910679 -10.13755081 34.86757012 -7.5625 37.85546875 C-6.05941074 39.20938207 -6.05941074 39.20938207 -4.046875 38.8984375 C-1.54181513 37.79888832 -0.12539126 36.42108691 1.75 34.4375 C2.36359375 33.79683594 2.9771875 33.15617187 3.609375 32.49609375 C4.29773438 31.75552734 4.29773438 31.75552734 5 31 C5.66 31.66 6.32 32.32 7 33 C6.14450562 33.76908691 6.14450562 33.76908691 5.27172852 34.55371094 C2.6726169 36.92237383 0.1183843 39.33478982 -2.4375 41.75 C-3.33533203 42.55566406 -4.23316406 43.36132812 -5.15820312 44.19140625 C-9.9602296 48.79410333 -12.53334254 51.86886052 -13.09765625 58.640625 C-13.10907343 60.42734341 -13.09252652 62.21564245 -13 64 C-13.66 63.67 -14.32 63.34 -15 63 C-15 59.37 -15 55.74 -15 52 C-16.2375 51.7215625 -16.2375 51.7215625 -17.5 51.4375 C-25.16399119 48.28978933 -29.85413957 42.85578069 -33.21484375 35.37109375 C-34.28909975 32.12694753 -34.41124886 30.13610858 -33 27 C-32.27248535 26.73525879 -31.5449707 26.47051758 -30.79541016 26.19775391 C-27.14700015 24.63451378 -24.83979577 22.15825335 -22.1484375 19.3359375 C-21.33737045 18.50783066 -21.33737045 18.50783066 -20.50991821 17.66299438 C-18.79083918 15.90740064 -17.08184052 14.14248967 -15.375 12.375 C-13.12054654 10.040933 -10.85647619 7.71684758 -8.5859375 5.3984375 C-7.81242447 4.58758194 -7.81242447 4.58758194 -7.02328491 3.76034546 C-3.33836251 0 -3.33836251 0 0 0 Z " fill="#E9E9E9" transform="translate(63,101)"/>
<path d="M0 0 C2.5645788 1.0991052 3.97674476 1.97273524 5.8125 4.125 C7.9835298 6.34587412 7.9835298 6.34587412 11.625 6.375 C15.06832602 6.34813734 15.06832602 6.34813734 17 4 C20.29714793 4.32971479 21.6226839 4.6226839 24 7 C23.625 9.625 23.625 9.625 23 12 C20.125 12.625 20.125 12.625 17 13 C16.34 12.34 15.68 11.68 15 11 C13.01178687 10.60235737 11.01055661 10.26224651 9 10 C9.02618408 10.74161377 9.05236816 11.48322754 9.0793457 12.24731445 C9.18317431 15.60216145 9.24828239 18.95667105 9.3125 22.3125 C9.35439453 23.47974609 9.39628906 24.64699219 9.43945312 25.84960938 C9.45556641 26.96787109 9.47167969 28.08613281 9.48828125 29.23828125 C9.51446533 30.26993408 9.54064941 31.30158691 9.56762695 32.36450195 C9 35 9 35 6.62304688 36.71875 C5.75744141 37.1415625 4.89183594 37.564375 4 38 C2.35239934 39.51663081 0.74751538 41.08091699 -0.8125 42.6875 C-1.99779297 43.89986328 -1.99779297 43.89986328 -3.20703125 45.13671875 C-3.79871094 45.75160156 -4.39039062 46.36648437 -5 47 C-4.566875 47.47050781 -4.13375 47.94101563 -3.6875 48.42578125 C-3.130625 49.04839844 -2.57375 49.67101562 -2 50.3125 C-1.443125 50.92738281 -0.88625 51.54226562 -0.3125 52.17578125 C1 54 1 54 1 57 C-1.31 55.02 -3.62 53.04 -6 51 C-9.92094306 52.69694839 -9.92094306 52.69694839 -12.125 55.125 C-13.053125 56.053125 -13.053125 56.053125 -14 57 C-14.66 57 -15.32 57 -16 57 C-15.50398003 52.84971247 -13.41758621 51.30683299 -10.30859375 48.68359375 C1.30291093 39.29145537 1.30291093 39.29145537 7.390625 26.390625 C7.53542206 21.80144459 6.96758489 17.47955969 6 13 C5.37351562 13.6496875 4.74703125 14.299375 4.1015625 14.96875 C3.28429687 15.8040625 2.46703125 16.639375 1.625 17.5 C0.81289062 18.3353125 0.00078125 19.170625 -0.8359375 20.03125 C-3 22 -3 22 -5 22 C-3.15290757 17.62170683 -0.06291142 15.12120954 3.41796875 12 C5.24595249 10.14688312 5.24595249 10.14688312 4.8671875 7.8828125 C3.71982544 5.39169308 1.95656928 3.89345414 0 2 C0 1.34 0 0.68 0 0 Z " fill="#FAFAFA" transform="translate(81,111)"/>
<path d="M0 0 C6.84564159 3.9889027 11.91256034 9.59098302 14.84375 16.99609375 C15.53125 20.87109375 15.53125 20.87109375 15.84375 23.99609375 C15.51375 23.99609375 15.18375 23.99609375 14.84375 23.99609375 C14.51375 25.64609375 14.18375 27.29609375 13.84375 28.99609375 C7.24375 28.99609375 0.64375 28.99609375 -6.15625 28.99609375 C-6.15625 29.65609375 -6.15625 30.31609375 -6.15625 30.99609375 C-7.65625 32.62109375 -7.65625 32.62109375 -9.15625 33.99609375 C-10.47625 33.33609375 -11.79625 32.67609375 -13.15625 31.99609375 C-12.40625 27.24609375 -12.40625 27.24609375 -10.15625 24.99609375 C-7.53125 25.37109375 -7.53125 25.37109375 -5.15625 25.99609375 C-5.15625 26.65609375 -5.15625 27.31609375 -5.15625 27.99609375 C0.78375 27.99609375 6.72375 27.99609375 12.84375 27.99609375 C11.88306276 19.6381148 10.70386827 13.26654853 4.84375 6.99609375 C1.3908129 4.27421328 -1.98949805 2.38501107 -6.15625 0.99609375 C-6.21024736 2.45402259 -6.24904177 3.91252087 -6.28125 5.37109375 C-6.30445312 6.18320313 -6.32765625 6.9953125 -6.3515625 7.83203125 C-6.36995051 10.20951618 -6.36995051 10.20951618 -4.15625 11.99609375 C-4.71180556 16.55164931 -4.71180556 16.55164931 -6.15625 17.99609375 C-8.59375 18.18359375 -8.59375 18.18359375 -11.15625 17.99609375 C-11.81625 17.33609375 -12.47625 16.67609375 -13.15625 15.99609375 C-12.60069444 11.44053819 -12.60069444 11.44053819 -11.15625 9.99609375 C-10.92261119 8.14717429 -10.74321365 6.29121344 -10.59375 4.43359375 C-10.50996094 3.42167969 -10.42617187 2.40976562 -10.33984375 1.3671875 C-10.27925781 0.58472656 -10.21867187 -0.19773438 -10.15625 -1.00390625 C-11.47625 -1.33390625 -12.79625 -1.66390625 -14.15625 -2.00390625 C-9.22674438 -3.64707479 -4.63719647 -2.15898459 0 0 Z " fill="#E9E9E9" transform="translate(115.15625,58.00390625)"/>
<path d="M0 0 C0.33 0 0.66 0 1 0 C1 9.9 1 19.8 1 30 C6.94 30 12.88 30 19 30 C19 29.34 19 28.68 19 28 C21.3125 27.3125 21.3125 27.3125 24 27 C25.875 28.125 25.875 28.125 27 30 C26.6875 32.6875 26.6875 32.6875 26 35 C23.03 35.495 23.03 35.495 20 36 C19.67 35.01 19.34 34.02 19 33 C13.06 33 7.12 33 1 33 C1 42.9 1 52.8 1 63 C-0.485 63.495 -0.485 63.495 -2 64 C-2 51.13 -2 38.26 -2 25 C-1.34 25 -0.68 25 0 25 C0 16.75 0 8.5 0 0 Z " fill="#E1E1E1" transform="translate(90,121)"/>
<path d="M0 0 C2.5625 0.1875 2.5625 0.1875 4.5625 2.1875 C4.45615234 3.31091797 4.45615234 3.31091797 4.34765625 4.45703125 C4.66426301 8.48081531 7.16660795 10.29440129 10 12.875 C15.48387809 18.03025618 15.48387809 18.03025618 16.5625 20.1875 C21.87365729 19.37039888 25.58797501 16.18468836 29.25 12.4375 C31.18320216 9.72056723 32.13247232 7.93075374 33.1875 4.875 C33.64125 3.658125 34.095 2.44125 34.5625 1.1875 C35.5525 0.8575 36.5425 0.5275 37.5625 0.1875 C37.19703699 7.13129716 33.49269715 13.39228315 28.52734375 18.12890625 C25.27701659 20.65018807 22.63588485 22.381875 18.5625 23.1875 C18.60890625 23.93773437 18.6553125 24.68796875 18.703125 25.4609375 C18.97697194 33.22645425 18.44313578 40.97344444 12.92578125 46.96484375 C12.47589844 47.36832031 12.02601562 47.77179688 11.5625 48.1875 C11.5625 43.69592583 12.7757878 41.26120381 14.5625 37.1875 C15.32379575 34.79848043 15.32379575 34.79848043 15.5625 32.1875 C15.70816406 31.56488281 15.85382813 30.94226563 16.00390625 30.30078125 C16.631102 25.87865424 15.95725247 23.74993494 13.35546875 20.04296875 C12.42143076 18.9506833 11.46901864 17.87387521 10.5 16.8125 C9.80245605 16.04474243 9.80245605 16.04474243 9.09082031 15.26147461 C5.56689392 11.65441418 2.23844639 10.01746221 -2.4375 8.1875 C-3.0975 7.5275 -3.7575 6.8675 -4.4375 6.1875 C-3.71780303 0.28598485 -3.71780303 0.28598485 0 0 Z " fill="#E3E3E3" transform="translate(112.4375,129.8125)"/>
<path d="M0 0 C0.99 0 1.98 0 3 0 C2.96745117 0.87624023 2.93490234 1.75248047 2.90136719 2.65527344 C1.46366935 21.13955256 1.46366935 21.13955256 8.06933594 37.37402344 C12.35902037 41.18736392 16.48851929 43.43827608 22 45 C22.625 47.375 22.625 47.375 23 50 C21 52 21 52 18.5 52.25 C16 52 16 52 14 50 C13.835 49.01 13.67 48.02 13.5 47 C12.00100983 40.991336 6.38958477 37.02513585 2 33 C-2.70403829 36.92003191 -7.01670637 40.98984241 -11.203125 45.4609375 C-13 47 -13 47 -16 47 C-14.8970912 43.83005019 -13.77528947 42.83694606 -10.99609375 40.8203125 C-5.56726443 36.86164874 -1.65182723 33.27493531 -0.29492188 26.45751953 C0.68420802 17.69814171 0.39486319 8.78549552 0 0 Z " fill="#E3E3E3" transform="translate(88,59)"/>
<path d="M0 0 C1.74965358 -0.05429959 3.49979787 -0.09292823 5.25 -0.125 C6.22453125 -0.14820313 7.1990625 -0.17140625 8.203125 -0.1953125 C11.05555602 0.00387961 12.52767597 0.66751367 15 2 C17.65491264 1.68393897 19.61205246 1.19397377 22 0 C24.6723621 -0.13415472 27.32250488 -0.04318541 30 0 C30.495 0.99 30.495 0.99 31 2 C29.98679687 2.19916016 29.98679687 2.19916016 28.953125 2.40234375 C28.06109375 2.57894531 27.1690625 2.75554688 26.25 2.9375 C25.36828125 3.11152344 24.4865625 3.28554688 23.578125 3.46484375 C21.37349297 3.92247191 19.18439943 4.45390014 17 5 C17 14.57 17 24.14 17 34 C16.67 34 16.34 34 16 34 C16 24.43 16 14.86 16 5 C10.3117328 3.10391093 7.68620859 2.80392384 2 3 C1.99368015 6.18926824 2.05370098 9.37409708 2.125 12.5625 C2.12242188 13.45775391 2.11984375 14.35300781 2.1171875 15.27539062 C2.29340105 21.28867798 3.36378629 24.41818844 7.71826172 28.64038086 C9 30 9 30 9 32 C8.01 32 7.02 32 6 32 C2 27.65714286 2 27.65714286 2 25 C1.34 25 0.68 25 0 25 C-0.4021875 25.86625 -0.4021875 25.86625 -0.8125 26.75 C-2.02929189 29.05550043 -3.30333879 31.02056192 -5 33 C-5.66 33 -6.32 33 -7 33 C-6.62653885 29.76333671 -5.86819759 28.87124387 -3.46484375 26.5234375 C0.18725186 22.24248257 -0.48624043 17.60578468 -0.75 12.25 C-0.81106617 10.35949315 -0.86853958 8.46886574 -0.921875 6.578125 C-0.95893555 5.74700195 -0.99599609 4.91587891 -1.03417969 4.05957031 C-1 2 -1 2 0 0 Z " fill="#F0F0F0" transform="translate(73,54)"/>
<path d="M0 0 C-1.50349377 3.66786393 -3.63728792 5.68910393 -6.625 8.25 C-7.85089844 9.30960938 -7.85089844 9.30960938 -9.1015625 10.390625 C-10.04128906 11.18726562 -10.04128906 11.18726562 -11 12 C-9.70054085 14.97109349 -8.48542224 16.65197358 -5.875 18.5625 C-4.451875 19.7690625 -4.451875 19.7690625 -3 21 C-3 21.99 -3 22.98 -3 24 C-7.29238623 22.34908222 -9.8793915 19.26245434 -13 16 C-17.4109892 18.01441563 -20.33820783 20.93445083 -23.75 24.3125 C-24.35199219 24.88162109 -24.95398438 25.45074219 -25.57421875 26.03710938 C-29.07473194 29.38797135 -29.07473194 29.38797135 -30.390625 33.91796875 C-30.26171875 34.60503906 -30.1328125 35.29210937 -30 36 C-30.99 36 -31.98 36 -33 36 C-33.625 32.625 -33.625 32.625 -34 29 C-32 27 -32 27 -29.72705078 25.72143555 C-26.49730822 23.68267863 -23.99531988 21.19105957 -21.3671875 18.45703125 C-20.30349589 17.37293847 -19.23969049 16.28895733 -18.17578125 15.20507812 C-16.51653432 13.50216681 -14.85984221 11.79685231 -13.20556641 10.08911133 C-11.59913212 8.4345646 -9.98372734 6.78919675 -8.3671875 5.14453125 C-7.87338593 4.62897171 -7.37958435 4.11341217 -6.87081909 3.58222961 C-3.33942978 0 -3.33942978 0 0 0 Z " fill="#EFEFEF" transform="translate(63,101)"/>
<path d="M0 0 C0.99 0.33 1.98 0.66 3 1 C2.61328125 1.44988281 2.2265625 1.89976563 1.828125 2.36328125 C-7.01520448 13.28610652 -7.70241767 24.47488329 -8 38 C-8.99 38.495 -8.99 38.495 -10 39 C-12.84972406 30.45082783 -11.73397392 19.59727862 -8.28515625 11.4140625 C-6.05917926 7.23274403 -3.3576019 3.3576019 0 0 Z " fill="#E8E8E8" transform="translate(38,92)"/>
<path d="M0 0 C0.33 1.32 0.66 2.64 1 4 C0.27425781 4.39832031 -0.45148438 4.79664063 -1.19921875 5.20703125 C-4.15924053 7.10194059 -6.36788362 9.16991 -8.8125 11.6875 C-9.99779297 12.89986328 -9.99779297 12.89986328 -11.20703125 14.13671875 C-11.79871094 14.75160156 -12.39039062 15.36648437 -13 16 C-12.566875 16.47050781 -12.13375 16.94101563 -11.6875 17.42578125 C-11.130625 18.04839844 -10.57375 18.67101562 -10 19.3125 C-9.443125 19.92738281 -8.88625 20.54226562 -8.3125 21.17578125 C-7 23 -7 23 -7 26 C-9.31 24.02 -11.62 22.04 -14 20 C-17.92094306 21.69694839 -17.92094306 21.69694839 -20.125 24.125 C-20.74375 24.74375 -21.3625 25.3625 -22 26 C-22.66 26 -23.32 26 -24 26 C-23.46268463 21.96146835 -21.4732008 20.11244706 -18.6328125 17.3046875 C-17.74722656 16.42425781 -16.86164063 15.54382813 -15.94921875 14.63671875 C-15.01722656 13.72535156 -14.08523437 12.81398437 -13.125 11.875 C-11.73861328 10.49634766 -11.73861328 10.49634766 -10.32421875 9.08984375 C-3.46416823 2.30944549 -3.46416823 2.30944549 0 0 Z " fill="#F1F1F1" transform="translate(89,142)"/>
<path d="M0 0 C3 1 3 1 4.01953125 2.8203125 C4.41205078 3.96113281 4.41205078 3.96113281 4.8125 5.125 C5.08707031 5.87007813 5.36164063 6.61515625 5.64453125 7.3828125 C6 10 6 10 4 17 C-2.6 17 -9.2 17 -16 17 C-16 17.66 -16 18.32 -16 19 C-17.5 20.625 -17.5 20.625 -19 22 C-20.32 21.34 -21.64 20.68 -23 20 C-22.25 15.25 -22.25 15.25 -20 13 C-17.375 13.375 -17.375 13.375 -15 14 C-15 14.66 -15 15.32 -15 16 C-9.06 16 -3.12 16 3 16 C2.5359375 13.15375 2.5359375 13.15375 2.0625 10.25 C1.88847656 9.18265625 1.71445313 8.1153125 1.53515625 7.015625 C1.11295829 4.63652407 0.62797116 2.33084789 0 0 Z " fill="#BCBCBC" transform="translate(125,70)"/>
<path d="M0 0 C2 2 2 2 2.1953125 5.9140625 C2.18200376 7.48449351 2.15813602 9.05486221 2.125 10.625 C2.11597656 11.42679688 2.10695312 12.22859375 2.09765625 13.0546875 C2.07406223 15.03658523 2.03819065 17.01832981 2 19 C1.01 19.33 0.02 19.66 -1 20 C-1 19.34 -1 18.68 -1 18 C-2.95901454 18.11382653 -4.9172338 18.24141125 -6.875 18.375 C-7.96554688 18.44460937 -9.05609375 18.51421875 -10.1796875 18.5859375 C-13.13046474 18.73253491 -13.13046474 18.73253491 -15 21 C-17.625 21.125 -17.625 21.125 -20 21 C-20.33 19.35 -20.66 17.7 -21 16 C-20.67 16.66 -20.34 17.32 -20 18 C-18.68 18 -17.36 18 -16 18 C-16.66 16.35 -17.32 14.7 -18 13 C-14.125 13.875 -14.125 13.875 -13 15 C-8.67509147 15.4652292 -4.34064463 15.70500473 0 16 C0 10.72 0 5.44 0 0 Z " fill="#F6F6F6" transform="translate(149,111)"/>
<path d="M0 0 C0.66 0.33 1.32 0.66 2 1 C2 2.65 2 4.3 2 6 C2.94875 6.2475 3.8975 6.495 4.875 6.75 C8 8 8 8 9.375 10.125 C9.58125 10.74375 9.7875 11.3625 10 12 C4.25 10.125 4.25 10.125 2 9 C0.40737934 8.84824451 -1.19064856 8.75099675 -2.7890625 8.68359375 C-3.73007813 8.64169922 -4.67109375 8.59980469 -5.640625 8.55664062 C-6.62546875 8.51732422 -7.6103125 8.47800781 -8.625 8.4375 C-9.61757812 8.39431641 -10.61015625 8.35113281 -11.6328125 8.30664062 C-14.08839838 8.20038931 -16.54408703 8.09835036 -19 8 C-19.33 8.99 -19.66 9.98 -20 11 C-20.99 11 -21.98 11 -23 11 C-22.67 10.01 -22.34 9.02 -22 8 C-21.34 8 -20.68 8 -20 8 C-20 7.34 -20 6.68 -20 6 C-13.4 6 -6.8 6 0 6 C0 4.02 0 2.04 0 0 Z " fill="#F7F7F7" transform="translate(129,81)"/>
<path d="M0 0 C3.25696479 0.41755959 4.63443291 0.63443291 7 3 C6.625 5.625 6.625 5.625 6 8 C3.125 8.625 3.125 8.625 0 9 C-0.66 8.34 -1.32 7.68 -2 7 C-4.57061311 6.35232207 -4.57061311 6.35232207 -7 6 C-7.33 5.01 -7.66 4.02 -8 3 C-6.865625 2.690625 -5.73125 2.38125 -4.5625 2.0625 C-1.21224901 1.37075469 -1.21224901 1.37075469 0 0 Z " fill="#939393" transform="translate(98,115)"/>
<path d="M0 0 C0.33 0 0.66 0 1 0 C1 1.155 1 2.31 1 3.5 C1.65376319 9.31122838 5.76274007 12.37082065 10 16 C9.34 16.66 8.68 17.32 8 18 C7.56429687 17.48308594 7.12859375 16.96617188 6.6796875 16.43359375 C4.87308881 14.4353861 3.13516293 12.64540725 1 11 C-2.18444653 10.82202611 -2.18444653 10.82202611 -5 12 C-5.78375 12.185625 -6.5675 12.37125 -7.375 12.5625 C-7.91125 12.706875 -8.4475 12.85125 -9 13 C-8.375 11.125 -8.375 11.125 -7 9 C-3.875 7.75 -3.875 7.75 -1 7 C-1.020625 6.030625 -1.04125 5.06125 -1.0625 4.0625 C-1 1 -1 1 0 0 Z " fill="#F3F3F3" transform="translate(49,80)"/>
<path d="M0 0 C1.7634375 0.0928125 1.7634375 0.0928125 3.5625 0.1875 C3.8925 0.8475 4.2225 1.5075 4.5625 2.1875 C3.54929687 2.38666016 3.54929687 2.38666016 2.515625 2.58984375 C1.17757812 2.85474609 1.17757812 2.85474609 -0.1875 3.125 C-1.06921875 3.29902344 -1.9509375 3.47304688 -2.859375 3.65234375 C-5.06400703 4.10997191 -7.25310057 4.64140014 -9.4375 5.1875 C-9.4375 14.7575 -9.4375 24.3275 -9.4375 34.1875 C-9.7675 34.1875 -10.0975 34.1875 -10.4375 34.1875 C-10.7675 23.9575 -11.0975 13.7275 -11.4375 3.1875 C-3.5625 -0.1875 -3.5625 -0.1875 0 0 Z " fill="#FFFFFF" transform="translate(99.4375,53.8125)"/>
<path d="M0 0 C1.32964861 3.98894582 0.28191553 5.16767857 -1.5625 8.875 C-4.12304675 13.8281888 -6.3812626 16.92084173 -11 20 C-11.33 19.01 -11.66 18.02 -12 17 C-10.671875 15.23828125 -10.671875 15.23828125 -8.75 13.3125 C-5.09658022 9.3903396 -3.68006831 6.04020492 -2 1 C-1.34 0.67 -0.68 0.34 0 0 Z " fill="#E3E3E3" transform="translate(149,130)"/>
<path d="M0 0 C0 6.6 0 13.2 0 20 C-0.33 20 -0.66 20 -1 20 C-1.33 14.06 -1.66 8.12 -2 2 C-3.44375 3.485 -4.8875 4.97 -6.375 6.5 C-7.87440511 8.04224526 -9.40891998 9.55251926 -11 11 C-11.66 11 -12.32 11 -13 11 C-11.61369489 7.89797074 -9.99905084 5.67588601 -7.625 3.25 C-7.03976563 2.63640625 -6.45453125 2.0228125 -5.8515625 1.390625 C-4 0 -4 0 0 0 Z " fill="#E7E7E7" transform="translate(89,122)"/>
<path d="M0 0 C2.625 0.375 2.625 0.375 5 1 C5.33 1.99 5.66 2.98 6 4 C5.34 4 4.68 4 4 4 C4 4.66 4 5.32 4 6 C2.5 7.625 2.5 7.625 1 9 C-0.32 8.34 -1.64 7.68 -3 7 C-2.25 2.25 -2.25 2.25 0 0 Z " fill="#E5E5E5" transform="translate(105,83)"/>
<path d="M0 0 C1.98 0.66 3.96 1.32 6 2 C6 2.66 6 3.32 6 4 C6.66 4 7.32 4 8 4 C7.67 4.99 7.34 5.98 7 7 C5.00045254 7.04254356 2.99958364 7.04080783 1 7 C0 6 0 6 -0.0625 2.9375 C-0.041875 1.968125 -0.02125 0.99875 0 0 Z " fill="#ADADAD" transform="translate(121,104)"/>
<path d="M0 0 C0.66 0.66 1.32 1.32 2 2 C3.97536745 1.65213292 3.97536745 1.65213292 6 1 C6.99 1 7.98 1 9 1 C8.125 5.875 8.125 5.875 7 7 C4.5625 7.1875 4.5625 7.1875 2 7 C0 5 0 5 -0.125 2.375 C-0.08375 1.59125 -0.0425 0.8075 0 0 Z " fill="#ABABAB" transform="translate(102,104)"/>
<path d="M0 0 C0 3.16611388 -0.46280377 4.17751295 -1.9375 6.875 C-3.52462768 9.91465797 -4.57002529 12.56020233 -5 16 C-5.99 16 -6.98 16 -8 16 C-7.40799802 10.07998018 -6.48574232 5.13063627 -1.8125 1.125 C-1.214375 0.75375 -0.61625 0.3825 0 0 Z " fill="#E5E5E5" transform="translate(56,65)"/>
<path d="M0 0 C0.33 0 0.66 0 1 0 C1.04898438 0.69867188 1.09796875 1.39734375 1.1484375 2.1171875 C1.22320312 3.02726562 1.29796875 3.93734375 1.375 4.875 C1.44460937 5.77992187 1.51421875 6.68484375 1.5859375 7.6171875 C1.79568132 10.17941903 1.79568132 10.17941903 4 12 C3.625 14.125 3.625 14.125 3 16 C0.84365964 16 -0.92446352 15.5534764 -3 15 C-2.690625 14.38125 -2.38125 13.7625 -2.0625 13.125 C-0.5960722 8.81197706 -0.33380974 4.5240004 0 0 Z " fill="#999999" transform="translate(107,58)"/>
<path d="M0 0 C0.66 0 1.32 0 2 0 C0.5968277 3.33434242 -0.96989805 5.05526479 -3.875 7.1875 C-4.55304688 7.69667969 -5.23109375 8.20585937 -5.9296875 8.73046875 C-7.98361986 9.98995557 -9.64588985 10.56190327 -12 11 C-12 10.01 -12 9.02 -12 8 C-11.38511719 7.67386719 -10.77023438 7.34773437 -10.13671875 7.01171875 C-8.92435547 6.35623047 -8.92435547 6.35623047 -7.6875 5.6875 C-6.88699219 5.25824219 -6.08648437 4.82898438 -5.26171875 4.38671875 C-2.97749619 3.10716154 -2.97749619 3.10716154 -1.33203125 1.33203125 C-0.89246094 0.89246094 -0.45289062 0.45289063 0 0 Z " fill="#F0F0F0" transform="translate(122,177)"/>
<path d="M0 0 C0.33 0 0.66 0 1 0 C1 3.3 1 6.6 1 10 C0.67 10 0.34 10 0 10 C0 6.7 0 3.4 0 0 Z M-2 10 C-1.34 10.33 -0.68 10.66 0 11 C-0.33 12.32 -0.66 13.64 -1 15 C0.65 14.67 2.3 14.34 4 14 C3.67 15.32 3.34 16.64 3 18 C0.625 18.125 0.625 18.125 -2 18 C-2.66 17.34 -3.32 16.68 -4 16 C-3.44444444 11.44444444 -3.44444444 11.44444444 -2 10 Z " fill="#F4F4F4" transform="translate(106,58)"/>
<path d="M0 0 C1.65 0.33 3.3 0.66 5 1 C5.33 2.65 5.66 4.3 6 6 C3 8 3 8 0.3125 7.625 C-0.450625 7.41875 -1.21375 7.2125 -2 7 C-1.67 5.68 -1.34 4.36 -1 3 C-0.67 3.66 -0.34 4.32 0 5 C0.66 5 1.32 5 2 5 C2 4.01 2 3.02 2 2 C1.34 1.34 0.68 0.68 0 0 Z " fill="#E8E8E8" transform="translate(99,116)"/>
<path d="M0 0 C0.845625 0.144375 1.69125 0.28875 2.5625 0.4375 C6.03593149 1.0058797 9.51445662 1.51202393 13 2 C13 2.99 13 3.98 13 5 C7.06 4.01 7.06 4.01 1 3 C0.67 2.01 0.34 1.02 0 0 Z " fill="#DBDBDB" transform="translate(69,186)"/>
<path d="M0 0 C1.79068573 2.6860286 2.66055791 4.6626589 3.625 7.6875 C3.88539062 8.49574219 4.14578125 9.30398437 4.4140625 10.13671875 C4.60742188 10.75160156 4.80078125 11.36648437 5 12 C4.01 12 3.02 12 2 12 C-0.68099266 8.49408652 -1.49516338 5.34159496 -2 1 C-1.34 0.67 -0.68 0.34 0 0 Z " fill="#DADADA" transform="translate(50,163)"/>
<path d="M0 0 C0.928125 0.2784375 0.928125 0.2784375 1.875 0.5625 C4.04160178 1.23686176 4.04160178 1.23686176 6 0 C5.67 1.65 5.34 3.3 5 5 C3.02 5.33 1.04 5.66 -1 6 C-1 3 -1 3 0 0 Z " fill="#8E8E8E" transform="translate(111,151)"/>
<path d="M0 0 C1.32 0.33 2.64 0.66 4 1 C4.33 2.65 4.66 4.3 5 6 C2.37886292 6 0.49064888 5.68707555 -2 5 C-1.34 3.35 -0.68 1.7 0 0 Z " fill="#919191" transform="translate(112,130)"/>
<path d="M0 0 C4.66154042 1.49835228 5.86610751 4.88463591 8 9 C5.46089803 8.61479436 4.27248877 8.29902057 2.515625 6.37109375 C2.09796875 5.73300781 1.6803125 5.09492187 1.25 4.4375 C0.82203125 3.79683594 0.3940625 3.15617187 -0.046875 2.49609375 C-0.51867187 1.75552734 -0.51867187 1.75552734 -1 1 C-0.67 0.67 -0.34 0.34 0 0 Z " fill="#E1E1E1" transform="translate(139,92)"/>
<path d="M0 0 C-0.33 0.99 -0.66 1.98 -1 3 C-1.99 2.67 -2.98 2.34 -4 2 C-4 5.3 -4 8.6 -4 12 C-4.33 12 -4.66 12 -5 12 C-5 8.37 -5 4.74 -5 1 C-6.32 0.67 -7.64 0.34 -9 0 C-5.52176885 -1.15941038 -3.54104422 -0.70820884 0 0 Z " fill="#D6D6D6" transform="translate(110,56)"/>
<path d="M0 0 C0.33 0.66 0.66 1.32 1 2 C0.31292969 2.13277344 -0.37414062 2.26554687 -1.08203125 2.40234375 C-2.43361328 2.66724609 -2.43361328 2.66724609 -3.8125 2.9375 C-5.15248047 3.19853516 -5.15248047 3.19853516 -6.51953125 3.46484375 C-9.11397171 3.97741153 -9.11397171 3.97741153 -12 5 C-12 4.01 -12 3.02 -12 2 C-8.09971775 -0.60018816 -4.52565431 -0.15085514 0 0 Z " fill="#EEEEEE" transform="translate(103,54)"/>
<path d="M0 0 C1.32 0.66 2.64 1.32 4 2 C4 3.32 4 4.64 4 6 C3.38125 5.814375 2.7625 5.62875 2.125 5.4375 C-0.04160178 4.76313824 -0.04160178 4.76313824 -2 6 C-1.125 1.125 -1.125 1.125 0 0 Z " fill="#838383" transform="translate(129,124)"/>
<path d="M0 0 C1.65 0 3.3 0 5 0 C5 1.65 5 3.3 5 5 C3.0625 5.5625 3.0625 5.5625 1 6 C0 5 0 5 -0.0625 2.4375 C-0.041875 1.633125 -0.02125 0.82875 0 0 Z " fill="#979797" transform="translate(100,170)"/>
<path d="M0 0 C0.33 0 0.66 0 1 0 C1 4.95 1 9.9 1 15 C0.01 15.495 0.01 15.495 -1 16 C-1.33 13.36 -1.66 10.72 -2 8 C-1.67 8 -1.34 8 -1 8 C-0.67 5.36 -0.34 2.72 0 0 Z " fill="#DBDBDB" transform="translate(29,115)"/>
<path d="M0 0 C0.66 0.33 1.32 0.66 2 1 C1.67 2.32 1.34 3.64 1 5 C1.99 5.66 2.98 6.32 4 7 C2.125 7.625 2.125 7.625 0 8 C-0.66 7.34 -1.32 6.68 -2 6 C-1.44444444 1.44444444 -1.44444444 1.44444444 0 0 Z " fill="#F4F4F4" transform="translate(110,130)"/>
<path d="M0 0 C2 0 4 0 6 0 C5.49396008 2.16874252 5.00016187 3.99967627 4 6 C2.68 5.34 1.36 4.68 0 4 C0 2.68 0 1.36 0 0 Z " fill="#858585" transform="translate(102,86)"/>
<path d="M0 0 C3.42054006 1.14018002 4.2426201 1.92458518 6 5 C5.578125 7.13671875 5.578125 7.13671875 5 9 C4.16094435 7.87926138 3.32892169 6.75325453 2.5 5.625 C2.0359375 4.99851563 1.571875 4.37203125 1.09375 3.7265625 C0 2 0 2 0 0 Z " fill="#E4E4E4" transform="translate(31,137)"/>
<path d="M0 0 C-0.33 2.64 -0.66 5.28 -1 8 C-1.99 8 -2.98 8 -4 8 C-3.74438677 5.6568787 -3.40729228 3.32156597 -3 1 C-1 0 -1 0 0 0 Z " fill="#D6D6D6" transform="translate(32,104)"/>
<path d="M0 0 C0.99 0.33 1.98 0.66 3 1 C1.37660195 2.70884005 -0.29319053 4.37446717 -2 6 C-2.66 6 -3.32 6 -4 6 C-2.84826645 3.53199953 -1.95216435 1.95216435 0 0 Z " fill="#E0E0E0" transform="translate(38,92)"/>
<path d="M0 0 C0.99 0 1.98 0 3 0 C7 4.34285714 7 4.34285714 7 7 C4.13302508 5.71480435 2.02392288 4.42870746 0 2 C0 1.34 0 0.68 0 0 Z " fill="#F0F0F0" transform="translate(53,175)"/>
<path d="M0 0 C0 0.99 0 1.98 0 3 C-1.98 3.66 -3.96 4.32 -6 5 C-6 4.01 -6 3.02 -6 2 C-2.25 0 -2.25 0 0 0 Z " fill="#DFDFDF" transform="translate(116,183)"/>
<path d="M0 0 C4.75 0.875 4.75 0.875 7 2 C6.67 2.99 6.34 3.98 6 5 C4.02 4.01 2.04 3.02 0 2 C0 1.34 0 0.68 0 0 Z " fill="#F1F1F1" transform="translate(110,57)"/>
</svg>
